<svg width="72" height="30" viewBox="0 0 72 30" fill="none" xmlns="http://www.w3.org/2000/svg">
    <path fill-rule="evenodd" clip-rule="evenodd" d="M44.686 0c-6.042 0-10.959 4.951-10.959 11.037V29.66h2.983V11.037c0-4.43 3.578-8.033 7.976-8.033h3.784V0h-3.784zm5.18 29.463h2.873V.036h-2.873v29.427zM38.2 16.986c0-.445.358-.806.8-.806h1.382c.442 0 .8.36.8.806v.64a.803.803 0 0 1-.8.807H39c-.442 0-.8-.361-.8-.806v-.641z" fill="url(#d168x7yn5a)"/>
    <path fill-rule="evenodd" clip-rule="evenodd" d="M28.12 24.736V22.36s-1.67-1.206-4.393-1.206c-2.613 0-4.246 1.316-4.246 3.07 0 2.194 1.96 3.07 3.847 3.07 2.977 0 4.791-2.558 4.791-2.558zm3.048-6.287v11.113h-2.795v-2.45S26.486 30 22.675 30c-3.013 0-6.243-2.12-6.243-5.776 0-3.29 2.867-5.63 6.642-5.63 3.085 0 5.045 1.39 5.045 1.39v-.914c0-3.51-2.903-3.984-4.246-3.984-2.541 0-5.009 1.425-5.009 1.425l-1.27-2.559s2.613-1.718 6.279-1.718c4.936 0 7.295 3.07 7.295 6.215zM2.105 24.48s1.779 2.742 5.081 2.742c1.706 0 3.63-.731 3.63-2.084 0-1.462-1.234-2.193-3.81-2.705C3.411 21.703.87 20.276.87 17.096c0-2.45 2.432-4.862 6.17-4.862 3.957 0 6.207 2.559 6.207 2.559l-1.996 2.084s-1.67-1.865-4.21-1.865c-2.142 0-3.195 1.06-3.195 2.157 0 1.28 1.307 1.974 4.065 2.56 3.194.694 5.917 1.9 5.917 5.336 0 3.254-3.412 4.935-6.643 4.935C2.468 30 0 26.454 0 26.454l2.105-1.974zm61.729-9.394c3.375 0 5.08 2.668 5.19 4.569H58.498c.218-1.755 1.706-4.57 5.336-4.57zm8.13 7.128c.036-.402.036-.658.036-.987 0-5.447-3.484-8.993-8.166-8.993-5.046 0-8.385 3.948-8.385 8.883 0 5.008 3.666 8.883 8.748 8.883 4.428 0 6.968-3.327 6.968-3.327l-1.923-2.01s-1.743 2.486-5.045 2.486c-3.158 0-5.59-2.376-5.772-4.935h13.539z" fill="#000"/>
    <defs>
        <linearGradient id="d168x7yn5a" x1="43.252" y1="-20.231" x2="12.643" y2="-5.03" gradientUnits="userSpaceOnUse">
            <stop stop-color="#11BCE2"/>
            <stop offset="1" stop-color="#0569F7"/>
        </linearGradient>
    </defs>
</svg>
