<svg xmlns="http://www.w3.org/2000/svg" xmlns:xlink="http://www.w3.org/1999/xlink" viewBox="0 0 295.8 66.32"><defs><style>.cls-1{fill:none;}.cls-2{fill:url(#linear-gradient);}.cls-3{fill:url(#linear-gradient-2);}.cls-4{fill:url(#linear-gradient-3);}.cls-5{fill:url(#linear-gradient-4);}.cls-6{fill:url(#linear-gradient-5);}.cls-7{fill:url(#linear-gradient-6);}.cls-8{fill:url(#linear-gradient-7);}.cls-9{fill:url(#linear-gradient-8);}.cls-10{fill:url(#linear-gradient-9);}.cls-11{fill:url(#linear-gradient-10);}.cls-12{fill:url(#linear-gradient-11);}</style><linearGradient id="linear-gradient" x1="-96.57" y1="50.18" x2="150.58" y2="-4.97" gradientUnits="userSpaceOnUse"><stop offset="0" stop-color="#fcd116"/><stop offset="1" stop-color="#ff9f22"/></linearGradient><linearGradient id="linear-gradient-2" x1="-96.23" y1="51.7" x2="150.92" y2="-3.45" xlink:href="#linear-gradient"/><linearGradient id="linear-gradient-3" x1="-96.4" y1="50.95" x2="150.75" y2="-4.2" xlink:href="#linear-gradient"/><linearGradient id="linear-gradient-4" x1="-95.87" y1="53.33" x2="151.28" y2="-1.82" xlink:href="#linear-gradient"/><linearGradient id="linear-gradient-5" x1="-93.1" y1="65.75" x2="154.05" y2="10.6" xlink:href="#linear-gradient"/><linearGradient id="linear-gradient-6" x1="-94.42" y1="59.84" x2="152.73" y2="4.69" xlink:href="#linear-gradient"/><linearGradient id="linear-gradient-7" x1="-95.62" y1="54.43" x2="151.53" y2="-0.72" xlink:href="#linear-gradient"/><linearGradient id="linear-gradient-8" x1="-91.9" y1="71.1" x2="155.25" y2="15.95" xlink:href="#linear-gradient"/><linearGradient id="linear-gradient-9" x1="-90.2" y1="78.73" x2="156.95" y2="23.58" xlink:href="#linear-gradient"/><linearGradient id="linear-gradient-10" x1="-93.55" y1="63.71" x2="153.6" y2="8.56" xlink:href="#linear-gradient"/><linearGradient id="linear-gradient-11" x1="-94.79" y1="58.16" x2="152.36" y2="3.01" xlink:href="#linear-gradient"/></defs><title>Asset 13</title><g id="Layer_2" data-name="Layer 2"><g id="FINALS"><path d="M94,40.33a16.77,16.77,0,0,1-6.19-6.24,17.24,17.24,0,0,1-2.28-8.76,17.67,17.67,0,0,1,2.21-8.83,16.13,16.13,0,0,1,6-6.17,17,17,0,0,1,8.64-2.23,20.69,20.69,0,0,1,5.09.63,13.75,13.75,0,0,1,4.27,1.77l-1.29,7.44a18.11,18.11,0,0,0-6.24-1.29,7.65,7.65,0,0,0-5.91,2.23,9.13,9.13,0,0,0-2.06,6.41,8.84,8.84,0,0,0,2.18,6.36,8,8,0,0,0,6.08,2.28,12.89,12.89,0,0,0,2.78-.29,20.52,20.52,0,0,0,3.17-1.06l1.34,7.59a17.7,17.7,0,0,1-9.12,2.44A17,17,0,0,1,94,40.33Z"/><path d="M122.38,8.82H137l9.56,33H135.25L134,35.51h-8.55l-1.39,6.34h-10.8Zm10.47,20.79-3.12-14.45-3.27,14.45Z"/><path d="M156.53,40.33a16.85,16.85,0,0,1-6.19-6.24,17.24,17.24,0,0,1-2.28-8.76,17.78,17.78,0,0,1,2.21-8.83,16.15,16.15,0,0,1,6-6.17A17,17,0,0,1,165,8.1a20.75,20.75,0,0,1,5.09.63,14,14,0,0,1,4.27,1.77L173,17.94a18,18,0,0,0-6.24-1.29,7.62,7.62,0,0,0-5.9,2.23,9.08,9.08,0,0,0-2.07,6.41A8.8,8.8,0,0,0,161,31.65a8,8,0,0,0,6.07,2.28,12.89,12.89,0,0,0,2.78-.29A20.17,20.17,0,0,0,173,32.58l1.35,7.59a17.76,17.76,0,0,1-9.12,2.44A17,17,0,0,1,156.53,40.33Z"/><path d="M178.69,8.82h11.08v33H178.69Z"/><path d="M213.05,42.52a6.77,6.77,0,0,1-1.05.09,18.65,18.65,0,0,1-9.15-2.2,16,16,0,0,1-6.24-6.12,17.65,17.65,0,0,1-2.23-8.91,17.82,17.82,0,0,1,2.23-9,15.57,15.57,0,0,1,6.24-6.12,20.4,20.4,0,0,1,18.39,0,15.63,15.63,0,0,1,6.24,6.09,17.93,17.93,0,0,1,2.23,9,18,18,0,0,1-1.59,7.51,16.48,16.48,0,0,1-4.56,6l6.15,4v1.82l-6.05,4.71Zm4-11a9.41,9.41,0,0,0,2-6.2,11.06,11.06,0,0,0-.89-4.53,7.45,7.45,0,0,0-2.47-3.12,6.09,6.09,0,0,0-3.6-1.13,6,6,0,0,0-3.56,1.13A7.24,7.24,0,0,0,206,20.8a11.23,11.23,0,0,0-.87,4.53,9.51,9.51,0,0,0,1.92,6.2,6.45,6.45,0,0,0,10,0Z"/><path d="M241.88,40.79A13.56,13.56,0,0,1,234,28.17V8.82h10.85V28.17a6,6,0,0,0,1.39,4.32,5.43,5.43,0,0,0,4.08,1.44,5.36,5.36,0,0,0,4.08-1.47,6,6,0,0,0,1.39-4.29V8.82h10.85V28.17a13.6,13.6,0,0,1-7.85,12.62,20.62,20.62,0,0,1-16.94,0Z"/><path d="M272.62,8.82H295.8v7.3H284.28v6H294.8v6.05H284.28v6.38H295.8v7.3H272.62Z"/><path d="M88.26,57.53a5,5,0,0,1-2-1.92,5.49,5.49,0,0,1-.72-2.81,5.19,5.19,0,0,1,.75-2.75,5.47,5.47,0,0,1,2.06-2,6,6,0,0,1,2.9-.71,5.41,5.41,0,0,1,3.21.84L94,51a7.07,7.07,0,0,0-2-.36,2.23,2.23,0,0,0-1.6.58A2.16,2.16,0,0,0,92,55a6.61,6.61,0,0,0,2-.36l.4,2.94a6.15,6.15,0,0,1-1.45.52,8.67,8.67,0,0,1-1.72.15A6.2,6.2,0,0,1,88.26,57.53Z"/><path d="M97.92,57.49a5.36,5.36,0,0,1-1.9-2,5.5,5.5,0,0,1-.72-2.79A5.34,5.34,0,0,1,96,50a5.1,5.1,0,0,1,1.91-1.92,5,5,0,0,1,2.54-.69,3.63,3.63,0,0,1,2,.61,3.7,3.7,0,0,1,1.41,1.82V47.38h4.41V58.05h-4.41v-2a3.55,3.55,0,0,1-3.44,2.12A4.82,4.82,0,0,1,97.92,57.49Zm5.35-3.19a2.06,2.06,0,0,0,.64-1.42v-.17a2.12,2.12,0,0,0-2.07-2,2,2,0,0,0-1.51.62,2.08,2.08,0,0,0,0,3,2.11,2.11,0,0,0,1.5.61A1.94,1.94,0,0,0,103.27,54.3Z"/><path d="M110.21,57.56l.49-2.5a8.51,8.51,0,0,0,2.94.55c.7,0,1-.2,1-.59a.56.56,0,0,0-.31-.48,3.45,3.45,0,0,0-1.14-.34,4.63,4.63,0,0,1-2.51-1.13,3.34,3.34,0,0,1,.56-4.81,5.7,5.7,0,0,1,3.38-.88,11.46,11.46,0,0,1,1.88.13A5.71,5.71,0,0,1,118,48l-.44,2.5a6.46,6.46,0,0,0-1.33-.36A6.76,6.76,0,0,0,115,50a2.23,2.23,0,0,0-1,.15.44.44,0,0,0-.28.4c0,.31.35.52,1.05.65a5.71,5.71,0,0,1,2.86,1.18,2.89,2.89,0,0,1,.94,2.28,3.23,3.23,0,0,1-1.16,2.62,5.16,5.16,0,0,1-3.35,1A10.46,10.46,0,0,1,110.21,57.56Z"/><path d="M121.09,57.08a4.53,4.53,0,0,1-1-3.09V47.53h4.45V53.8a1,1,0,0,0,.26.75.93.93,0,0,0,.68.26,1.69,1.69,0,0,0,.86-.25l.23,2.92a3.26,3.26,0,0,1-1.2.55,6.64,6.64,0,0,1-1.55.18A3.45,3.45,0,0,1,121.09,57.08Z"/><path d="M127.81,47.67H132v2.14a4.06,4.06,0,0,1,3.87-2.43,3.83,3.83,0,0,1,3.16,1.44,6.24,6.24,0,0,1,1.14,4v5.25h-4.41V52.36A2.15,2.15,0,0,0,135.4,51a1.31,1.31,0,0,0-1.08-.48,1.78,1.78,0,0,0-1,.32,2.3,2.3,0,0,0-.79.94,2.92,2.92,0,0,0-.31,1.38v4.92h-4.43Z"/><path d="M144.62,57.52a5.13,5.13,0,0,1-2.91-4.74,5.16,5.16,0,0,1,.78-2.83,5.22,5.22,0,0,1,2.15-1.9,7.69,7.69,0,0,1,6.3,0,5.12,5.12,0,0,1,2.13,1.9,5.18,5.18,0,0,1,.76,2.82,5.28,5.28,0,0,1-.77,2.84,5.1,5.1,0,0,1-2.14,1.91,7.59,7.59,0,0,1-6.3,0Zm4.6-3.1a2.7,2.7,0,0,0,0-3.29,1.88,1.88,0,0,0-2.83,0,2.7,2.7,0,0,0,0,3.29,1.88,1.88,0,0,0,2.83,0Z"/><path d="M61.65,47.55A9.39,9.39,0,1,0,71,56.93,9.38,9.38,0,0,0,61.65,47.55Zm0,2.35a1,1,0,1,1,1-1A1,1,0,0,1,61.65,49.9Z"/><path d="M9.38,47.55a9.39,9.39,0,1,0,9.38,9.38A9.38,9.38,0,0,0,9.38,47.55Zm0,2.35a1,1,0,1,1,1-1A1,1,0,0,1,9.38,49.9Z"/><path class="cls-1" d="M47.94,31.2l0,0a24.08,24.08,0,0,0-24.67,0A20,20,0,0,0,13.7,41.55a0,0,0,0,1,0,0,16.5,16.5,0,0,0-1,4.48l2.79.55a9.23,9.23,0,0,1,.36-2.36,9.74,9.74,0,0,1,18.95.82V47a20,20,0,0,0-2.26,2.19,13.51,13.51,0,0,0-1,1.27,3.83,3.83,0,0,0-.93,3.1,3,3,0,0,1,1.21-.27,2.64,2.64,0,0,1,2.73,2.56,2.71,2.71,0,0,1,0,.4c.32,0,.65,0,1,0s.94,0,1.38-.06a2.21,2.21,0,0,1,0-.37,2.65,2.65,0,0,1,2.74-2.56,2.72,2.72,0,0,1,.86.15,3.25,3.25,0,0,0,0-.44,4.8,4.8,0,0,0-1-2.51,10.25,10.25,0,0,0-1-1.28A19.42,19.42,0,0,0,36.27,47V45.19a9.75,9.75,0,0,1,19-.94,9.3,9.3,0,0,1,.35,2.37l2.72-.55a15.91,15.91,0,0,0-1-4.6A20,20,0,0,0,47.94,31.2Z"/><path class="cls-2" d="M28.17,21a.62.62,0,0,0-.38.29l-.45.78-.78-.45a.64.64,0,0,0-.47-.07.63.63,0,0,0-.44.76.66.66,0,0,0,.29.38l1.85,1.07,1.07-1.85a.6.6,0,0,0,.07-.47A.62.62,0,0,0,28.17,21Z"/><polygon class="cls-3" points="21.52 24.94 19.22 24.13 18.77 26.53 21.07 27.34 21.52 24.94"/><path class="cls-4" d="M35.37,20.13l-1.51,1.52a.58.58,0,0,0-.18.43.62.62,0,0,0,.62.62.58.58,0,0,0,.43-.18l.64-.64.64.64a.58.58,0,0,0,.43.18.62.62,0,0,0,.62-.62.58.58,0,0,0-.18-.43Z"/><path class="cls-5" d="M44.6,21.62a.64.64,0,0,0-.47.06l-.78.45-.45-.78a.66.66,0,0,0-.38-.29.63.63,0,0,0-.76.44.6.6,0,0,0,.07.47l1.06,1.85,1.86-1.06a.63.63,0,0,0,.28-.38A.62.62,0,0,0,44.6,21.62Z"/><path class="cls-6" d="M4.33,44.69a.62.62,0,0,0,.44.76.64.64,0,0,0,.47-.06l1.85-1.07L6,42.47a.61.61,0,0,0-1.13.15.65.65,0,0,0,.06.47l.45.77-.78.45A.65.65,0,0,0,4.33,44.69Z"/><path class="cls-7" d="M10,35.34a.67.67,0,0,0-.92.25v0l-.23.48-.34-.4a.67.67,0,0,0-.18-.16.68.68,0,0,0-.67,1.18.63.63,0,0,0,.22.07l.51.09-.32.47h0A.68.68,0,1,0,9,37.1l.34-.59A.67.67,0,1,0,10,35.34Z"/><path class="cls-8" d="M13.63,28.69a.67.67,0,0,0-.18.44V30h-.9a.67.67,0,0,0-.44.18.63.63,0,0,0,0,.88.67.67,0,0,0,.44.18h2.14V29.13a.67.67,0,0,0-.18-.44A.63.63,0,0,0,13.63,28.69Z"/><polygon class="cls-9" points="60.69 35.5 59.88 37.8 62.27 38.25 63.08 35.95 60.69 35.5"/><path d="M62.52,44.78l1.41-2.44a1.29,1.29,0,0,1,.78-.61,1.3,1.3,0,0,1,1.59.92,1.25,1.25,0,0,1-.13,1l-.11.2.19.11a1.29,1.29,0,0,1,.61.78,1.32,1.32,0,0,1-.06.79L69.27,45A34.46,34.46,0,0,0,1.77,45l2,.46a1.25,1.25,0,0,1-.12-.95,1.27,1.27,0,0,1,.6-.79l.19-.11-.11-.2a1.29,1.29,0,0,1-.13-1,1.31,1.31,0,0,1,1.59-.92,1.28,1.28,0,0,1,.79.61L8,44.57,5.7,45.9l4.33,1a26,26,0,0,1,51-.07L64.63,46Zm-51.45-6.5-1-.6a1.29,1.29,0,0,1-.18.68,1.36,1.36,0,0,1-1.85.5,1.38,1.38,0,0,1-.63-1.54l0,0A1.35,1.35,0,1,1,8.69,35l0,0a1.35,1.35,0,0,1,2.14,1.62,1.3,1.3,0,0,1-.5.49l1,.61ZM15.37,32H12.55a1.3,1.3,0,0,1,0-2.6h.22v-.22a1.3,1.3,0,1,1,2.6,0Zm6.22-3.71L18,27l.7-3.74,3.59,1.26Zm7.86-6L28,24.69l-2.44-1.4a1.3,1.3,0,0,1,.32-2.38,1.29,1.29,0,0,1,1,.13l.19.11.12-.19a1.29,1.29,0,0,1,.78-.61,1.31,1.31,0,0,1,1.59.92A1.28,1.28,0,0,1,29.45,22.25Zm7,1.13a1.26,1.26,0,0,1-.73-.23V24.4H35V23.15a1.26,1.26,0,0,1-.73.23,1.3,1.3,0,0,1-1.3-1.3,1.25,1.25,0,0,1,.38-.91l2-2,2,2a1.25,1.25,0,0,1,.38.91A1.3,1.3,0,0,1,36.44,23.38Zm9.25-.83a1.28,1.28,0,0,1-.61.79l-2.43,1.41-1.41-2.44a1.3,1.3,0,0,1,1.46-1.9,1.27,1.27,0,0,1,.78.6l.12.2.19-.11a1.25,1.25,0,0,1,1-.13A1.29,1.29,0,0,1,45.69,22.55Zm6.77,4.56a1.36,1.36,0,0,1-1.85.49,1.24,1.24,0,0,1-.49-.5l-.61,1-.58-.34.6-1a1.35,1.35,0,1,1,.36-2.65l0,0a1.36,1.36,0,0,1,2.35,1.35l0,0A1.36,1.36,0,0,1,52.46,27.11Zm2.81,5V29.28a1.25,1.25,0,0,1,.38-.91,1.3,1.3,0,0,1,2.21.91v.23h.22a1.28,1.28,0,0,1,.92.38,1.3,1.3,0,0,1,0,1.83,1.32,1.32,0,0,1-.92.38ZM59,38.32l1.26-3.59,3.74.7L62.72,39Z"/><path class="cls-10" d="M65.65,42.83a.62.62,0,0,0-.76-.44.59.59,0,0,0-.38.29l-1.07,1.85L65.3,45.6a.64.64,0,0,0,.47.06.62.62,0,0,0,.43-.76.63.63,0,0,0-.28-.38l-.78-.45.45-.78A.62.62,0,0,0,65.65,42.83Z"/><path class="cls-11" d="M58.08,30.18h-.9v-.9a.58.58,0,0,0-.18-.43.62.62,0,0,0-1.06.43v2.14h2.14a.62.62,0,0,0,.44-1.05A.63.63,0,0,0,58.08,30.18Z"/><path class="cls-12" d="M51.62,25.84h0l-.47-.23.4-.34a.8.8,0,0,0,.15-.17.68.68,0,1,0-1.17-.68.63.63,0,0,0-.08.22l-.09.52-.47-.33h0a.68.68,0,0,0-.92.25.68.68,0,1,0,1.17.68l.59.34a.68.68,0,0,0,1.17.68A.68.68,0,0,0,51.62,25.84Z"/><path d="M54.54,21.05,54,20.69a35.45,35.45,0,0,0-3.68-1.89A5.68,5.68,0,1,1,60.21,15h9.36a15,15,0,0,0-30.08,0c0,.29,0,.57,0,.85a36.38,36.38,0,0,0-8,0c0-.28,0-.56,0-.85A15,15,0,0,0,1.47,15h9.36a5.68,5.68,0,1,1,9.92,3.79,34.68,34.68,0,0,0-3.64,1.87c-.21.12-.41.24-.61.38A36.24,36.24,0,0,0,0,44.61l1.18.27a35.06,35.06,0,0,1,68.68-.06L71,44.55A36.35,36.35,0,0,0,54.54,21.05Z"/><path d="M42.88,42.36c-1.17,0-2.12.25-2.12.55s1,.55,2.12.55S45,43.21,45,42.91,44.05,42.36,42.88,42.36Z"/><path d="M45.84,28.75a25.28,25.28,0,0,0-20.56,0A25.43,25.43,0,0,0,12,42.34,23.81,23.81,0,0,0,10.62,47l1.19.27v0l3.83.76c1.35,2.35,2.55,4.6,3.77,6.69,3.89,6.71,7.81,11.63,16.15,11.63,5.52,0,8.9-1.81,11.73-5a41.74,41.74,0,0,0,4.43-6.6c1.15-2,2.36-4.25,3.75-6.68,1.33-.26,2.73-.55,4.22-.86v0l.73-.17A25.17,25.17,0,0,0,59,42.22,25.43,25.43,0,0,0,45.84,28.75ZM24.65,42.91c0-1.13,1.57-2,3.51-2s3.51.91,3.51,2S30.1,45,28.16,45,24.65,44,24.65,42.91ZM35.52,62.06c-4.22,0-7.64-4.37-7.64-4.37a15.59,15.59,0,0,0,7.54,1.82,17,17,0,0,0,7.74-1.82S39.74,62.06,35.52,62.06ZM42.88,45c-1.94,0-3.51-.92-3.51-2.05s1.57-2,3.51-2,3.51.91,3.51,2S44.81,45,42.88,45ZM55.6,46.62a9.3,9.3,0,0,0-.35-2.37,9.75,9.75,0,0,0-19,.94V47a19.42,19.42,0,0,1,2.28,2.21,10.25,10.25,0,0,1,1,1.28,4.8,4.8,0,0,1,1,2.51,3.25,3.25,0,0,1,0,.44,2.72,2.72,0,0,0-.86-.15,2.65,2.65,0,0,0-2.74,2.56,2.21,2.21,0,0,0,0,.37q-.66.06-1.38.06c-.35,0-.68,0-1,0a2.71,2.71,0,0,0,0-.4,2.64,2.64,0,0,0-2.73-2.56,3,3,0,0,0-1.21.27,3.83,3.83,0,0,1,.93-3.1,13.51,13.51,0,0,1,1-1.27A20,20,0,0,1,34.83,47V45.07a9.74,9.74,0,0,0-18.95-.82,9.23,9.23,0,0,0-.36,2.36l-2.79-.55a16.5,16.5,0,0,1,1-4.48,0,0,0,0,0,0,0,20,20,0,0,1,9.53-10.41,24.08,24.08,0,0,1,24.67,0l0,0a20,20,0,0,1,9.37,10.27,15.91,15.91,0,0,1,1,4.6Z"/><path d="M30.28,42.91c0-.3-1-.55-2.12-.55s-2.12.25-2.12.55.95.55,2.12.55S30.28,43.21,30.28,42.91Z"/></g></g></svg>